<svg width="209.40118408203125px" height="128.67251892089843px" xmlns="http://www.w3.org/2000/svg" viewBox="145.29940795898438 10.663740539550787 209.40118408203125 128.67251892089843" style="background: rgba(0, 0, 0, 0);" preserveAspectRatio="xMidYMid"><defs><linearGradient id="editing-outline-gradient" x1="0.41284425725234186" x2="0.5871557427476581" y1="-0.49619469809174555" y2="1.4961946980917455"><stop offset="0" stop-color="#ee4208"></stop><stop offset="1" stop-color="#8fff39"></stop></linearGradient><filter id="editing-outline" x="-100%" y="-100%" width="300%" height="300%"><feMorphology in="SourceGraphic" operator="dilate" radius="2" result="outline"></feMorphology><feComposite operator="out" in="outline" in2="SourceAlpha"></feComposite></filter></defs><g filter="url(#editing-outline)"><g transform="translate(181.92905819416046, 104.05500030517578)"><path d="M45.70-25.34L45.70-25.34L45.25-27.07L45.25-27.07Q45.25-27.58 45.76-27.58L45.76-27.58L45.76-27.58Q45.95-27.58 46.27-27.39L46.27-27.39L46.27-27.39Q47.74-26.30 47.74-24.51L47.74-24.51L47.74-24.51Q47.74-22.72 45.44-21.02L45.44-21.02L45.44-21.02Q43.14-19.33 39.62-19.33L39.62-19.33L39.62-19.33Q38.53-19.33 37.44-19.52L37.44-19.52L37.44-19.52Q33.02-11.39 26.69-4.54L26.69-4.54L26.69-4.54Q18.24 4.42 11.33 4.42L11.33 4.42L11.33 4.42Q1.34 4.42 1.34-7.36L1.34-7.36L1.34-7.36Q1.34-17.09 6.53-23.04L6.53-23.04L6.53-23.04Q10.88-28.16 16.51-28.16L16.51-28.16L16.51-28.16Q17.98-28.16 19.52-27.65L19.52-27.65L19.52-27.65Q23.30-26.18 23.30-21.41L23.30-21.41L23.30-21.41Q23.30-16.64 19.39-11.46L19.39-11.46L19.39-11.46Q15.49-6.27 11.39-6.27L11.39-6.27L11.39-6.27Q6.78-6.27 6.78-11.26L6.78-11.26L6.78-11.26Q6.78-12.67 7.39-14.21L7.39-14.21L7.39-14.21Q8-15.74 8.77-15.74L8.77-15.74L8.77-15.74Q9.34-15.74 9.34-15.17L9.34-15.17L9.34-15.17Q9.34-14.85 8.77-13.57L8.77-13.57L8.77-13.57Q8.19-12.29 8.19-11.30L8.19-11.30L8.19-11.30Q8.19-10.30 9.25-9.44L9.25-9.44L9.25-9.44Q10.30-8.58 11.46-8.58L11.46-8.58L11.46-8.58Q15.23-8.58 18.46-13.22L18.46-13.22L18.46-13.22Q21.70-17.86 21.70-22.27L21.70-22.27L21.70-22.27Q21.70-25.66 19.26-26.75L19.26-26.75L19.26-26.75Q18.43-27.07 17.54-27.07L17.54-27.07L17.54-27.07Q12.99-27.07 8.45-20.80L8.45-20.80L8.45-20.80Q4.03-14.46 4.03-6.91L4.03-6.91L4.03-6.91Q4.03-2.75 5.82-0.13L5.82-0.13L5.82-0.13Q7.68 2.56 10.94 2.56L10.94 2.56L10.94 2.56Q19.39 2.56 32.96-20.42L32.96-20.42L32.96-20.42Q25.92-22.53 25.92-28.74L25.92-28.74L25.92-28.74Q25.92-36.99 34.30-41.92L34.30-41.92L34.30-41.92Q39.62-44.99 44.61-44.99L44.61-44.99L44.61-44.99Q48.51-44.99 51.65-43.71L51.65-43.71L51.65-43.71Q56.06-41.98 56.06-38.46L56.06-38.46L56.06-38.46Q56.06-37.70 55.71-36.99L55.71-36.99L55.71-36.99Q55.36-36.29 54.98-36.29L54.98-36.29L54.98-36.29Q54.14-37.12 52.99-37.12L52.99-37.12L52.99-37.12Q47.55-37.12 38.08-20.93L38.08-20.93L38.08-20.93Q38.59-20.86 39.17-20.86L39.17-20.86L39.17-20.86Q41.34-20.86 43.52-22.14L43.52-22.14L43.52-22.14Q45.70-23.42 45.70-25.34ZM46.14-43.20L46.14-43.20L46.14-43.20Q42.88-43.20 38.62-41.31L38.62-41.31L38.62-41.31Q34.37-39.42 31.84-35.78L31.84-35.78L31.84-35.78Q29.31-32.13 29.31-27.52L29.31-27.52L29.31-27.52Q29.31-22.91 34.05-22.02L34.05-22.02L34.05-22.02Q37.57-27.78 43.14-33.50L43.14-33.50L43.14-33.50Q48.70-39.23 52.42-39.23L52.42-39.23L52.42-39.23Q53.38-39.23 54.08-38.78L54.08-38.78L54.08-38.78Q54.02-40.58 51.58-41.92L51.58-41.92L51.58-41.92Q49.41-43.20 46.14-43.20ZM41.73 0.83L41.73 0.83L41.73 0.83Q41.02 0.83 40.45 0.64L40.45 0.64L40.45 0.64Q36.35-0.51 36.35-3.97L36.35-3.97L36.35-3.97Q36.35-8.45 41.98-14.34L41.98-14.34L41.98-14.34Q47.62-20.22 52.10-20.22L52.10-20.22L52.10-20.22Q53.57-20.22 54.50-19.42L54.50-19.42L54.50-19.42Q55.42-18.62 55.42-17.25L55.42-17.25L55.42-17.25Q55.42-15.87 54.59-14.37L54.59-14.37L54.59-14.37Q53.76-12.86 52.10-12.86L52.10-12.86L52.10-12.86Q50.43-12.86 50.43-13.89L50.43-13.89L50.43-13.89Q50.43-14.59 51.30-16.03L51.30-16.03L51.30-16.03Q52.16-17.47 52.16-17.57L52.16-17.57L52.16-17.57Q52.16-17.66 51.97-17.66L51.97-17.66L51.97-17.66Q50.18-17.47 47.07-15.10L47.07-15.10L47.07-15.10Q43.97-12.74 42.82-11.14L42.82-11.14L40.32-7.49L40.32-7.49Q39.68-6.46 39.39-5.06L39.39-5.06L39.39-5.06Q39.10-3.65 39.10-2.94L39.10-2.94L39.10-2.94Q39.10-2.24 39.90-1.34L39.90-1.34L39.90-1.34Q40.70-0.45 42.18-0.45L42.18-0.45L42.18-0.45Q45.38-0.45 50.11-4.19L50.11-4.19L50.11-4.19Q54.85-7.94 57.41-11.33L57.41-11.33L57.41-11.33Q57.73-11.71 58.18-11.71L58.18-11.71L58.18-11.71Q58.62-11.71 58.62-11.46L58.62-11.46L58.62-11.46Q58.62-11.20 58.30-10.82L58.30-10.82L58.30-10.82Q54.78-6.14 49.89-2.66L49.89-2.66L49.89-2.66Q44.99 0.83 41.73 0.83ZM70.14-0.26L70.14-0.26L70.14-0.26Q66.37-0.26 66.37-4.67L66.37-4.67L66.37-4.67Q66.37-7.17 68.13-10.21L68.13-10.21L68.13-10.21Q69.89-13.25 72.45-17.34L72.45-17.34L72.45-17.34Q64.26-13.25 57.60-5.25L57.60-5.25L57.60-5.25Q53.89 0.32 53.25 0.32L53.25 0.32L53.25 0.32Q51.39 0.32 51.39-0.77L51.39-0.77L51.39-0.77Q51.39-1.34 52.16-2.82L52.16-2.82L52.16-2.82Q58.37-13.89 61.57-19.01L61.57-19.01L61.57-19.01Q69.18-31.23 72.32-32.26L72.32-32.26L72.32-32.26Q72.45-32.32 72.58-32.32L72.58-32.32L72.58-32.32Q73.41-32.32 73.73-30.98L73.73-30.98L73.73-30.98Q73.54-29.63 67.07-21.25L67.07-21.25L67.07-21.25Q60.35-12.74 59.46-10.11L59.46-10.11L59.46-10.11Q61.82-11.84 67.71-15.94L67.71-15.94L67.71-15.94Q74.05-20.35 76.10-20.35L76.10-20.35L76.10-20.35Q78.14-20.35 78.14-18.75L78.14-18.75L78.14-18.75Q78.14-18.50 78.11-18.40L78.11-18.40L78.11-18.40Q78.08-18.30 73.66-12.35L73.66-12.35L73.66-12.35Q69.25-6.40 69.25-3.58L69.25-3.58L69.25-3.58Q69.25-2.11 70.34-2.11L70.34-2.11L70.34-2.11Q73.79-2.24 80.70-10.43L80.70-10.43L80.70-10.43Q81.28-11.01 81.57-11.01L81.57-11.01L81.57-11.01Q81.86-11.01 81.86-10.62L81.86-10.62L81.86-10.62Q81.86-9.34 75.52-3.71L75.52-3.71L75.52-3.71Q71.55-0.26 70.14-0.26ZM92.93-26.11L92.93-26.11Q93.89-26.11 94.75-25.50L94.75-25.50L94.75-25.50Q95.62-24.90 95.62-24.06L95.62-24.06L95.62-24.06Q95.62-23.23 94.82-22.62L94.82-22.62L94.82-22.62Q94.02-22.02 93.06-22.02L93.06-22.02L93.06-22.02Q92.10-22.02 91.30-22.72L91.30-22.72L91.30-22.72Q90.50-23.42 90.50-24.32L90.50-24.32L90.50-24.32Q90.50-26.11 92.93-26.11L92.93-26.11ZM81.34 0.70L81.34 0.70L81.34 0.70Q78.08 0.70 78.08-3.52L78.08-3.52L78.08-3.52Q78.08-6.98 81.86-13.09L81.86-13.09L81.86-13.09Q85.63-19.20 87.94-19.26L87.94-19.26L87.94-19.26Q88.58-19.26 89.38-18.75L89.38-18.75L89.38-18.75Q90.18-18.24 90.18-17.73L90.18-17.73L90.18-17.73Q89.86-17.28 89.41-16.74L89.41-16.74L89.41-16.74Q88.96-16.19 88.45-15.55L88.45-15.55L88.45-15.55Q87.94-14.91 87.04-13.73L87.04-13.73L87.04-13.73Q86.14-12.54 85.31-11.46L85.31-11.46L85.31-11.46Q80.51-5.25 80.51-2.91L80.51-2.91L80.51-2.91Q80.51-0.58 82.11-0.58L82.11-0.58L82.11-0.58Q83.46-0.58 85.76-2.05L85.76-2.05L85.76-2.05Q91.14-5.38 94.27-9.34L94.27-9.34L94.27-9.34Q95.42-10.82 95.84-10.82L95.84-10.82L95.84-10.82Q96.26-10.82 96.26-10.30L96.26-10.30L96.26-10.30Q96.26-9.79 94.78-8.26L94.78-8.26L94.78-8.26Q93.31-6.72 92.45-5.82L92.45-5.82L92.45-5.82Q91.58-4.93 91.26-4.64L91.26-4.64L91.26-4.64Q90.94-4.35 90.08-3.55L90.08-3.55L90.08-3.55Q89.22-2.75 88.77-2.43L88.77-2.43L88.77-2.43Q88.32-2.11 87.49-1.47L87.49-1.47L87.49-1.47Q86.66-0.83 86.02-0.54L86.02-0.54L86.02-0.54Q85.38-0.26 84.54 0.13L84.54 0.13L84.54 0.13Q83.20 0.70 81.34 0.70ZM114.88-19.52L114.88-19.52L115.78-19.71L115.78-19.71Q116.61-19.71 117.09-19.20L117.09-19.20L117.09-19.20Q117.57-18.69 117.57-18.40L117.57-18.40L117.57-18.40Q117.57-18.11 117.50-17.76L117.50-17.76L117.50-17.76Q117.44-17.41 115.65-14.53L115.65-14.53L115.65-14.53Q113.41-10.62 111.94-7.94L111.94-7.94L111.94-7.94Q106.75 1.73 104 5.31L104 5.31L104 5.31Q98.11 13.12 92.80 13.12L92.80 13.12L92.80 13.12Q90.94 13.12 89.57 11.55L89.57 11.55L89.57 11.55Q88.19 9.98 88.13 8.06L88.13 8.06L88.13 8.06Q88.32 7.30 88.70 7.30L88.70 7.30L88.70 7.30Q88.90 7.30 89.02 7.74L89.02 7.74L89.02 7.74Q89.34 9.41 90.24 10.30L90.24 10.30L90.24 10.30Q91.14 11.20 92.03 11.20L92.03 11.20L92.03 11.20Q95.68 11.20 99.84 6.40L99.84 6.40L99.84 6.40Q102.59 3.20 105.92-2.94L105.92-2.94L109.12-9.28L104.32-4.42L104.32-4.42Q99.71 0 98.02 0L98.02 0L98.02 0Q96.32 0 94.78-1.15L94.78-1.15L94.78-1.15Q93.06-2.43 93.06-4.54L93.06-4.54L93.06-4.54Q93.06-9.22 99.62-15.68L99.62-15.68L99.62-15.68Q106.18-22.14 111.55-22.14L111.55-22.14L111.55-22.14Q113.73-22.14 114.37-20.74L114.37-20.74L114.37-20.74Q114.56-20.22 114.69-19.87L114.69-19.87L114.69-19.87Q114.82-19.52 114.88-19.52ZM95.74-3.78L95.74-3.78L95.74-3.78Q95.74-1.47 97.34-1.47L97.34-1.47L97.34-1.47Q101.06-1.47 107.46-9.60L107.46-9.60L114.24-18.94L114.24-18.94Q113.86-19.84 112.64-19.84L112.64-19.84L112.64-19.84Q108.67-19.84 102.21-13.73L102.21-13.73L102.21-13.73Q95.74-7.62 95.74-3.78ZM133.89-13.57L133.89-13.57L133.89-13.57Q133.89-11.33 129.60-6.08L129.60-6.08L129.60-6.08Q124.54 0.13 120.96 0.13L120.96 0.13L119.94 0.13L119.94 0.13Q118.27 0.13 117.31-1.60L117.31-1.60L117.31-1.60Q116.54-2.82 116.54-4.29L116.54-4.29L116.54-4.29Q116.54-8.13 122.14-15.07L122.14-15.07L122.14-15.07Q127.74-22.02 131.20-22.02L131.20-22.02L131.20-22.02Q134.46-22.02 134.46-18.56L134.46-18.56L134.46-18.56Q134.46-17.66 134.14-16.26L134.14-16.26L134.14-16.26Q134.21-16.06 135.36-16.06L135.36-16.06L135.36-16.06Q136.51-16.06 138.88-17.28L138.88-17.28L138.88-17.28Q138.82-16.19 133.82-14.14L133.82-14.14L133.82-14.14Q133.89-13.89 133.89-13.57ZM129.73-16.90L129.73-16.90L129.73-16.90Q127.55-16.90 123.55-11.78L123.55-11.78L123.55-11.78Q119.55-6.66 119.55-4.22L119.55-4.22L119.55-4.22Q119.55-1.79 121.09-1.79L121.09-1.79L121.09-1.79Q123.84-1.79 128.06-6.78L128.06-6.78L128.06-6.78Q132.29-11.78 132.29-13.95L132.29-13.95L132.29-13.95Q131.26-14.53 129.73-16.90Z" fill="url(#editing-outline-gradient)"></path></g></g><style>text {
  font-size: 64px;
  font-family: Arial Black;
  dominant-baseline: central;
  text-anchor: middle;
}</style></svg>